<svg width="24" height="24" viewBox="0 0 24 24" fill="none" xmlns="http://www.w3.org/2000/svg">
<path fill-rule="evenodd" clip-rule="evenodd" d="M12.1179 18.9523L18.9476 12.6677C19.0131 12.6 19.0131 12.4708 18.9476 12.4031L12.1179 6.05078C12.0458 5.98307 11.9738 5.98307 11.9083 6.05078L11.1487 6.82635C11.1029 6.87559 11.1029 6.94946 11.1553 6.9987L16.3414 11.8121H5.77268C5.3536 11.806 5 12.2061 5 12.6C5 13.0001 5.3536 13.2586 5.77268 13.2586H16.2039L11.1553 18.0659C11.1029 18.1152 11.1029 18.1952 11.1553 18.2444L11.9083 18.9523C11.9804 19.02 12.0458 19.02 12.1179 18.9523Z" fill="#FFE084"/>
<path fill-rule="evenodd" clip-rule="evenodd" d="M12.1179 18.9523L18.9476 12.6677C19.0131 12.6 19.0131 12.4708 18.9476 12.4031L12.1179 6.05078C12.0458 5.98307 11.9738 5.98307 11.9083 6.05078L11.1487 6.82635C11.1029 6.87559 11.1029 6.94946 11.1553 6.9987L16.3414 11.8121H5.77268C5.3536 11.806 5 12.2061 5 12.6C5 13.0001 5.3536 13.2586 5.77268 13.2586H16.2039L11.1553 18.0659C11.1029 18.1152 11.1029 18.1952 11.1553 18.2444L11.9083 18.9523C11.9804 19.02 12.0458 19.02 12.1179 18.9523Z" fill="#FFE084"/>
</svg>
